<?xml version="1.0" standalone="no"?>
<!DOCTYPE svg PUBLIC "-//W3C//DTD SVG 20010904//EN"
 "http://www.w3.org/TR/2001/REC-SVG-20010904/DTD/svg10.dtd">
<svg version="1.0" xmlns="http://www.w3.org/2000/svg"
 width="159.000000pt" height="35.000000pt" viewBox="0 0 159.000000 35.000000"
 preserveAspectRatio="xMidYMid meet">

<g transform="translate(0.000000,35.000000) scale(0.100000,-0.100000)"
fill="#000000" stroke="none">
<path d="M77 294 c-11 -14 -30 -30 -43 -36 -32 -15 -30 -29 3 -26 24 3 31 -4
56 -50 l29 -54 22 21 c28 26 38 26 61 1 22 -25 30 -20 60 41 23 44 28 49 50
43 32 -8 32 9 1 24 -14 6 -32 23 -42 37 -15 23 -21 25 -98 25 -75 -1 -82 -2
-99 -26z m143 -5 c0 -6 -10 -24 -21 -41 l-22 -30 -23 29 c-35 42 -31 53 21 53
26 0 45 -5 45 -11z m-87 -50 c22 -32 26 -44 16 -55 -6 -8 -15 -14 -18 -14 -11
0 -52 90 -46 101 10 16 19 10 48 -32z m133 27 c6 -16 -32 -96 -45 -96 -5 0
-13 6 -19 13 -8 9 -4 24 16 55 29 44 39 51 48 28z"/>
<path d="M990 215 c0 -78 3 -95 15 -95 11 0 15 11 15 38 0 41 14 62 42 62 15
0 18 -9 18 -50 0 -43 3 -50 20 -50 17 0 20 7 20 49 0 33 -6 56 -19 72 -17 21
-22 22 -45 11 -36 -16 -36 -17 -36 23 0 24 -5 35 -15 35 -12 0 -15 -17 -15
-95z"/>
<path d="M1480 282 c0 -10 -5 -23 -12 -30 -8 -8 -8 -15 0 -24 6 -7 12 -34 14
-58 3 -43 5 -45 36 -48 36 -4 47 22 12 31 -26 7 -28 61 -2 76 16 10 16 12 0
25 -10 7 -18 21 -18 30 0 9 -7 16 -15 16 -8 0 -15 -8 -15 -18z"/>
<path d="M422 245 c-34 -24 -27 -44 23 -65 34 -15 43 -23 38 -36 -5 -13 -15
-15 -46 -11 -26 4 -36 2 -30 -4 6 -6 28 -9 49 -7 34 3 39 7 42 30 3 24 -2 28
-38 39 -51 15 -52 44 -2 44 17 0 32 3 32 7 0 5 -4 8 -9 8 -5 0 -15 2 -23 5 -7
3 -23 -2 -36 -10z"/>
<path d="M572 244 c-12 -8 -22 -10 -22 -5 0 6 -4 11 -10 11 -6 0 -10 -28 -10
-65 0 -37 4 -65 10 -65 6 0 10 20 10 43 0 48 25 81 57 75 14 -3 19 -14 21 -61
4 -73 22 -75 22 -3 0 78 -30 104 -78 70z"/>
<path d="M705 246 c-17 -12 -15 -14 21 -12 l39 1 3 -44 c4 -47 -7 -61 -44 -61
-46 0 -37 45 12 60 28 8 28 8 3 9 -36 1 -62 -20 -57 -50 3 -22 8 -24 58 -25
l55 -1 -3 54 c-3 40 -9 57 -25 68 -27 19 -38 19 -62 1z"/>
<path d="M880 250 c-8 -5 -23 -7 -32 -4 -16 5 -18 -4 -18 -90 0 -57 4 -96 10
-96 6 0 10 16 10 36 0 32 2 35 23 29 12 -4 24 -7 27 -7 61 -1 84 82 34 121
-30 24 -33 24 -54 11z m44 -23 c12 -9 17 -23 14 -46 -4 -43 -27 -59 -62 -43
-21 9 -26 19 -26 46 0 49 37 70 74 43z"/>
<path d="M1156 253 c-3 -3 -6 -33 -6 -65 0 -52 3 -60 23 -67 12 -5 31 -5 43
-1 11 5 31 6 45 3 25 -5 25 -4 21 59 -4 59 -16 83 -34 72 -4 -3 -8 -25 -8 -49
0 -33 -5 -47 -18 -54 -27 -15 -42 5 -42 55 0 41 -10 61 -24 47z"/>
<path d="M1316 253 c-3 -3 -6 -35 -6 -70 0 -56 2 -63 20 -63 17 0 20 7 20 45
0 33 5 47 19 54 26 14 31 5 31 -51 0 -41 3 -48 20 -48 18 0 20 7 20 60 0 50
-3 61 -21 71 -15 8 -28 8 -43 1 -13 -6 -29 -6 -38 -1 -8 5 -18 6 -22 2z"/>
</g>
</svg>
